<svg width="68" height="12" viewBox="0 0 68 12" fill="none" xmlns="http://www.w3.org/2000/svg">
<g id="Right Side">
<g id="Battery">
<path id="Rectangle" opacity="0.35" d="M45.667 0.833984H62.333C63.5296 0.833984 64.5 1.80436 64.5 3.00098V9.00098C64.4998 10.1974 63.5295 11.167 62.333 11.167H45.667C44.4705 11.167 43.5002 10.1974 43.5 9.00098V3.00098L43.5107 2.7793C43.6216 1.68664 44.5451 0.833984 45.667 0.833984Z" stroke="#111111"/>
<path id="Combined Shape" opacity="0.4" d="M66 4.00098V8.00098C66.8047 7.6622 67.328 6.87411 67.328 6.00098C67.328 5.12784 66.8047 4.33975 66 4.00098Z" fill="#111111"/>
<path id="Rectangle_2" d="M45 3.43399C45 2.82647 45.4925 2.33398 46.1 2.33398H61.9C62.5075 2.33398 63 2.82647 63 3.43398V8.56732C63 9.17483 62.5075 9.66732 61.9 9.66732H46.1C45.4925 9.66732 45 9.17483 45 8.56732V3.43399Z" fill="#111111"/>
</g>
<path id="Wifi" fill-rule="evenodd" clip-rule="evenodd" d="M30.3309 2.60838C32.5468 2.60848 34.678 3.45992 36.2839 4.98672C36.4049 5.10459 36.5982 5.1031 36.7173 4.98338L37.8733 3.81672C37.9336 3.75599 37.9672 3.67374 37.9667 3.58816C37.9662 3.50258 37.9316 3.42073 37.8706 3.36072C33.6555 -0.678832 27.0057 -0.678832 22.7906 3.36072C22.7295 3.42068 22.6949 3.50251 22.6943 3.58809C22.6938 3.67367 22.7273 3.75595 22.7876 3.81672L23.9439 4.98338C24.063 5.10328 24.2564 5.10477 24.3773 4.98672C25.9834 3.45982 28.1148 2.60838 30.3309 2.60838ZM30.3309 6.40405C31.5484 6.40397 32.7225 6.85651 33.6249 7.67372C33.747 7.7897 33.9393 7.78718 34.0583 7.66805L35.2129 6.50138C35.2737 6.44019 35.3075 6.35717 35.3066 6.27091C35.3057 6.18464 35.2703 6.10233 35.2083 6.04238C32.4601 3.486 28.2041 3.486 25.4559 6.04238C25.3939 6.10233 25.3584 6.18468 25.3576 6.27097C25.3568 6.35727 25.3907 6.44028 25.4516 6.50138L26.6059 7.66805C26.7249 7.78718 26.9172 7.7897 27.0393 7.67372C27.9411 6.85705 29.1143 6.40455 30.3309 6.40405ZM32.6439 8.95787C32.6457 9.04437 32.6117 9.12778 32.5499 9.18838L30.5526 11.204C30.4941 11.2633 30.4142 11.2966 30.3309 11.2966C30.2477 11.2966 30.1678 11.2633 30.1093 11.204L28.1116 9.18838C28.0499 9.12773 28.0159 9.0443 28.0178 8.9578C28.0196 8.87129 28.0571 8.78937 28.1213 8.73138C29.3968 7.6525 31.265 7.6525 32.5406 8.73138C32.6048 8.78942 32.6422 8.87136 32.6439 8.95787Z" fill="#111111"/>
<path id="Mobile Signal" fill-rule="evenodd" clip-rule="evenodd" d="M16.667 0.666992H15.667C15.1147 0.666992 14.667 1.11471 14.667 1.66699V10.3337C14.667 10.8859 15.1147 11.3337 15.667 11.3337H16.667C17.2193 11.3337 17.667 10.8859 17.667 10.3337V1.66699C17.667 1.11471 17.2193 0.666992 16.667 0.666992ZM11.0003 3.00033H12.0003C12.5526 3.00033 13.0003 3.44804 13.0003 4.00033V10.3337C13.0003 10.8859 12.5526 11.3337 12.0003 11.3337H11.0003C10.448 11.3337 10.0003 10.8859 10.0003 10.3337V4.00033C10.0003 3.44804 10.448 3.00033 11.0003 3.00033ZM7.33366 5.33366H6.33366C5.78137 5.33366 5.33366 5.78137 5.33366 6.33366V10.3337C5.33366 10.8859 5.78137 11.3337 6.33366 11.3337H7.33366C7.88594 11.3337 8.33366 10.8859 8.33366 10.3337V6.33366C8.33366 5.78137 7.88594 5.33366 7.33366 5.33366ZM2.66699 7.33366H1.66699C1.11471 7.33366 0.666992 7.78137 0.666992 8.33366V10.3337C0.666992 10.8859 1.11471 11.3337 1.66699 11.3337H2.66699C3.21928 11.3337 3.66699 10.8859 3.66699 10.3337V8.33366C3.66699 7.78137 3.21928 7.33366 2.66699 7.33366Z" fill="#111111"/>
</g>
</svg>
